<?xml version="1.0" standalone="no"?>
<!DOCTYPE svg PUBLIC "-//W3C//DTD SVG 20010904//EN"
 "http://www.w3.org/TR/2001/REC-SVG-20010904/DTD/svg10.dtd">
<svg version="1.0" xmlns="http://www.w3.org/2000/svg"
 width="150.000000pt" height="161.000000pt" viewBox="0 0 150.000000 161.000000"
 preserveAspectRatio="xMidYMid meet">

<g transform="translate(0.000000,161.000000) scale(0.100000,-0.100000)"
fill="#000000" stroke="none">
<path d="M710 1560 c-50 -10 -84 -25 -99 -44 -7 -9 -16 -14 -20 -11 -4 2 -19
-6 -33 -18 -15 -12 -38 -31 -52 -41 -14 -10 -26 -25 -26 -32 0 -8 -6 -14 -13
-14 -8 0 -23 -10 -35 -23 -51 -54 -76 -209 -48 -294 15 -46 66 -111 66 -85 0
7 4 12 9 12 5 0 9 -6 8 -12 -1 -32 4 -46 17 -51 11 -4 13 -1 9 10 -4 11 -2 14
5 9 8 -5 12 6 13 36 2 65 12 92 43 106 25 13 30 12 47 -7 16 -16 17 -21 5 -21
-8 0 -18 -5 -22 -11 -5 -8 1 -10 19 -7 18 3 32 -1 43 -13 16 -18 16 -19 -2
-19 -16 0 -17 -2 -4 -10 18 -12 45 -4 84 23 25 18 27 24 22 58 -3 20 -9 44
-12 52 -4 12 2 16 26 15 17 -1 33 -5 36 -10 3 -4 10 -6 15 -3 5 4 9 2 9 -4 0
-5 -4 -13 -10 -16 -5 -3 -10 -12 -10 -18 0 -8 3 -7 9 2 6 9 9 -7 10 -44 0 -64
3 -69 34 -72 12 -1 34 -5 50 -9 17 -4 27 -2 27 5 0 6 18 14 40 17 24 4 40 12
40 20 0 19 16 18 24 -2 3 -9 6 -38 6 -66 0 -42 3 -49 16 -44 9 3 18 6 20 6 2
0 4 6 4 14 0 8 7 16 15 19 23 9 75 145 75 197 0 14 -6 50 -14 80 l-14 54 19
-24 19 -25 -9 27 c-33 91 -150 202 -235 224 -16 4 -28 15 -32 29 -3 12 -17 28
-30 34 -27 12 -109 13 -164 1z"/>
<path d="M856 937 c3 -10 9 -15 12 -12 3 3 0 11 -7 18 -10 9 -11 8 -5 -6z"/>
<path d="M726 895 c-17 -13 -18 -15 -3 -15 9 0 17 -7 17 -15 0 -8 14 -18 32
-23 l33 -8 -34 -17 c-47 -23 -82 -22 -88 3 -7 25 -19 26 -33 1 -17 -33 -12
-44 18 -38 15 3 53 0 83 -8 51 -12 52 -13 17 -14 -38 -1 -73 -25 -62 -42 3 -6
17 -14 30 -19 27 -11 23 -36 -7 -45 -11 -4 -16 -11 -13 -17 8 -12 -36 -1 -50
13 -16 14 -26 10 -26 -10 0 -10 11 -26 25 -35 14 -9 25 -21 25 -27 0 -5 10
-23 22 -39 19 -27 20 -33 9 -68 -9 -25 -22 -42 -39 -49 -29 -12 -80 -11 -101
2 -9 5 -12 2 -9 -11 2 -12 25 -24 78 -40 l75 -24 69 27 c73 27 132 72 147 110
16 43 22 76 13 70 -5 -3 -11 24 -13 61 -1 37 -4 68 -5 69 -1 1 -15 -4 -30 -12
-37 -19 -42 -19 -24 3 21 23 34 71 30 107 -2 24 -12 36 -38 50 -31 16 -34 21
-20 31 17 12 22 25 9 22 -5 0 -16 2 -26 7 -11 4 -23 3 -30 -4 -17 -17 -58 -14
-51 4 8 19 -5 19 -30 0z m188 -348 c-11 -6 -24 -18 -31 -26 -7 -9 -13 -12 -13
-6 0 14 44 53 54 47 5 -2 0 -9 -10 -15z"/>
<path d="M550 461 c0 -6 4 -13 10 -16 6 -3 7 1 4 9 -7 18 -14 21 -14 7z"/>
</g>
</svg>
